<svg xmlns="http://www.w3.org/2000/svg" xmlns:xlink="http://www.w3.org/1999/xlink" width="1753" height="661" viewBox="0 0 1753 661">
  <defs>
    <linearGradient id="linear-gradient" x1="0.023" y1="0.425" x2="0.844" y2="0.72" gradientUnits="objectBoundingBox">
      <stop offset="0" stop-color="#2166fe"/>
      <stop offset="1" stop-color="#53117f"/>
    </linearGradient>
    <clipPath id="clip-logo">
      <rect width="1753" height="661"/>
    </clipPath>
  </defs>
  <g id="logo" clip-path="url(#clip-logo)">
    <rect width="1753" height="661" fill="url(#linear-gradient)"/>
    <text id="KRUDO" transform="translate(598 333)" fill="#fff" font-size="265" font-family="Verdana-Bold, Verdana" font-weight="700"><tspan x="0" y="0">KRUDO</tspan></text>
    <text id="HOLIDAY" transform="translate(598 552)" fill="#fff" font-size="204" font-family="Verdana-Bold, Verdana" font-weight="700"><tspan x="0" y="0">HOLIDAY</tspan></text>
    <path id="Path_1" data-name="Path 1" d="M658.583,140V802.036" transform="translate(-146 -141.036)" fill="none" stroke="#fff" stroke-linecap="round" stroke-width="11"/>
    <g id="temp_abstract-5815BF1558BF15_temp" transform="matrix(0.695, 0.719, -0.719, 0.695, 181.195, 65.802)">
      <path id="Path_3" data-name="Path 3" d="M133.657,70.583,131,70.421q-6.282-.366-12.761-.533l-2.924-.093c-4.548-.093-9.165-.093-13.817,0-6.74,5.058-12.761,9.826-18.225,14.524Q80.7,86.511,78.2,88.681c-2.065,1.833-3.48,3.1-4.954,4.431Q67,98.75,61,104.713c-1.4,1.392-2.738,2.7-4.072,4.107-2.912,2.993-5.8,6.009-8.55,9.083l-.093.1-4.06,4.536a3.9,3.9,0,0,0,0,5.069l23.84,28.817.812.928,10.7,13a34.714,34.714,0,0,0,26.775,12.563,33.514,33.514,0,0,0,23.678-9.651A337.2,337.2,0,0,1,249.711,99.342c.246-.093.906-.3,1.163-.371,2.55-.928,5.068-1.833,7.541-2.691a469.858,469.858,0,0,0-124.758-25.7Z" transform="translate(108.747 127.429)" fill="#fff"/>
      <path id="Path_4" data-name="Path 4" d="M413.465,51.364a634.5,634.5,0,0,0-75.129-19.907,2.4,2.4,0,0,1-.418-.07A618.013,618.013,0,0,0,216.272,19.009,524.772,524.772,0,0,0,3.452,62.744a5.731,5.731,0,0,0-2.158,8.886L24,99.067l.313.406.093.1,61.067,73.852a52.708,52.708,0,0,0,17.471,13.759l4.362,1.891a1.814,1.814,0,0,1,.267.081c.858,0,.963.279,1.752.58a33.742,33.742,0,0,0,4.64,1.392l.406.081a50.319,50.319,0,0,0,21.926.185,383.608,383.608,0,0,1,71.543-8.121q4.443-.1,8.829-.1c2.111,0,4.165.081,6.253.1l4.014.07q6.682.174,13.2.534c.905,0,1.81.081,2.7.139,16.091.986,31.392,2.807,45.65,5.127l2.134.371c3.875.65,7.668,1.323,11.369,2.042l3.387.673c3.214.638,6.369,1.3,9.443,1.984,1.242.267,2.471.534,3.678.812,2.912.673,5.719,1.346,8.492,2.03l3.538.87c2.773.708,5.441,1.427,8.121,2.146l2.947.8c3.294.916,6.462,1.845,9.489,2.761l2.6.812c2.322.719,4.64,1.427,6.715,2.123,1.349.429,2.553.847,3.828,1.276l4.12,1.392,3.8,1.357,3.052,1.1c1.254.452,2.413.894,3.551,1.323l2.156.824,3.2,1.253.337.139,33.341-156.3a6.461,6.461,0,0,0-4.327-7.575Z" transform="translate(0 0)" fill="#fff"/>
    </g>
  </g>
</svg>
